<?xml version="1.0" encoding="UTF-8" standalone="no"?>
<!-- Created with Inkscape (http://www.inkscape.org/) -->

<svg
   xmlns:dc="http://purl.org/dc/elements/1.1/"
   xmlns:cc="http://creativecommons.org/ns#"
   xmlns:rdf="http://www.w3.org/1999/02/22-rdf-syntax-ns#"
   xmlns:svg="http://www.w3.org/2000/svg"
   xmlns="http://www.w3.org/2000/svg"
   xmlns:sodipodi="http://sodipodi.sourceforge.net/DTD/sodipodi-0.dtd"
   xmlns:inkscape="http://www.inkscape.org/namespaces/inkscape"
   id="svg2"
   version="1.1"
   inkscape:version="0.91 r13725"
   xml:space="preserve"
   width="742.5"
   height="922.5"
   viewBox="0 0 742.5 922.5"
   sodipodi:docname="how_to_apply.ai.svg"><metadata
     id="metadata8"><rdf:RDF><cc:Work
         rdf:about=""><dc:format>image/svg+xml</dc:format><dc:type
           rdf:resource="http://purl.org/dc/dcmitype/StillImage" /><dc:title></dc:title></cc:Work></rdf:RDF></metadata><defs
     id="defs6"><clipPath
       clipPathUnits="userSpaceOnUse"
       id="clipPath16"><path
         d="m 37,195 519.649,0 0,346.491 L 37,541.491 37,195 Z"
         id="path18"
         inkscape:connector-curvature="0" /></clipPath><clipPath
       clipPathUnits="userSpaceOnUse"
       id="clipPath282"><path
         d="m 37,195 519.649,0 0,346.491 L 37,541.491 37,195 Z"
         id="path284"
         inkscape:connector-curvature="0" /></clipPath><clipPath
       clipPathUnits="userSpaceOnUse"
       id="clipPath290"><path
         d="m 187.885,467.345 202.537,0 0,-193.535 -202.537,0 0,193.535 z"
         id="path292"
         inkscape:connector-curvature="0" /></clipPath><clipPath
       clipPathUnits="userSpaceOnUse"
       id="clipPath294"><path
         d="m 187.885,273.81 202.537,0 0,193.535 -202.537,0 0,-193.535 z"
         id="path296"
         inkscape:connector-curvature="0" /></clipPath></defs><sodipodi:namedview
     pagecolor="#ffffff"
     bordercolor="#666666"
     borderopacity="1"
     objecttolerance="10"
     gridtolerance="10"
     guidetolerance="10"
     inkscape:pageopacity="0"
     inkscape:pageshadow="2"
     inkscape:window-width="725"
     inkscape:window-height="480"
     id="namedview4"
     showgrid="false"
     inkscape:zoom="0.25582656"
     inkscape:cx="371.25"
     inkscape:cy="461.25"
     inkscape:window-x="0"
     inkscape:window-y="0"
     inkscape:window-maximized="0"
     inkscape:current-layer="g10" /><g
     id="g10"
     inkscape:groupmode="layer"
     inkscape:label="how_to_apply"
     transform="matrix(1.25,0,0,-1.25,0,922.5)"><g
       id="g12"><g
         id="g14"
         clip-path="url(#clipPath16)"><g
           id="g20"
           transform="translate(208.0645,531.7744)"><path
             d="m 0,0 0,-1.582 0.278,0 c 0.157,0 0.276,0.001 0.357,0.004 0.082,0.003 0.186,0.018 0.312,0.046 0.126,0.028 0.22,0.067 0.282,0.118 0.062,0.051 0.116,0.126 0.164,0.227 0.047,0.101 0.071,0.227 0.071,0.379 0,0.157 -0.022,0.287 -0.067,0.391 -0.045,0.105 -0.098,0.185 -0.16,0.24 C 1.175,-0.121 1.084,-0.08 0.964,-0.055 0.843,-0.029 0.739,-0.014 0.652,-0.009 0.565,-0.003 0.44,0 0.278,0 L 0,0 Z m -1.65,-5.017 0,6.347 2.525,0 c 0.713,0 1.275,-0.173 1.688,-0.518 0.413,-0.345 0.619,-0.868 0.619,-1.57 0,-1.436 -0.749,-2.154 -2.248,-2.154 l -0.934,0 0,-2.105 -1.65,0 z"
             style="fill:#6d6f71;fill-opacity:1;fill-rule:nonzero;stroke:none"
             id="path22"
             inkscape:connector-curvature="0" /></g><g
           id="g24"
           transform="translate(213.6279,531.8418)"><path
             d="m 0,0 0,-1.582 0.16,0 c 0.763,0 1.145,0.264 1.145,0.791 C 1.305,-0.264 0.923,0 0.16,0 L 0,0 Z m 1.633,-2.483 1.995,-2.601 -2.054,0 -1.557,2.441 -0.017,0 0,-2.441 -1.65,0 0,6.347 2.466,0 C 1.479,1.263 2.012,1.1 2.416,0.774 2.82,0.449 3.022,-0.039 3.022,-0.69 3.022,-1.145 2.9,-1.537 2.656,-1.868 2.412,-2.2 2.071,-2.404 1.633,-2.483"
             style="fill:#6d6f71;fill-opacity:1;fill-rule:nonzero;stroke:none"
             id="path26"
             inkscape:connector-curvature="0" /></g><g
           id="g28"
           transform="translate(221.313,531.707)"><path
             d="m 0,0 -1.961,0 0,-1.061 1.86,0 0,-1.397 -1.86,0 0,-1.094 1.961,0 0,-1.397 -3.611,0 0,6.346 L 0,1.397 0,0 Z"
             style="fill:#6d6f71;fill-opacity:1;fill-rule:nonzero;stroke:none"
             id="path30"
             inkscape:connector-curvature="0" /></g><g
           id="g32"
           transform="translate(223.981,531.7744)"><path
             d="m 0,0 0,-1.582 0.278,0 c 0.157,0 0.276,0.001 0.357,0.004 0.082,0.003 0.186,0.018 0.312,0.046 0.126,0.028 0.22,0.067 0.282,0.118 0.062,0.051 0.116,0.126 0.164,0.227 0.047,0.101 0.071,0.227 0.071,0.379 0,0.157 -0.022,0.287 -0.067,0.391 -0.045,0.105 -0.098,0.185 -0.16,0.24 C 1.175,-0.121 1.084,-0.08 0.964,-0.055 0.843,-0.029 0.739,-0.014 0.652,-0.009 0.565,-0.003 0.44,0 0.278,0 L 0,0 Z m -1.65,-5.017 0,6.347 2.525,0 c 0.713,0 1.275,-0.173 1.688,-0.518 0.413,-0.345 0.619,-0.868 0.619,-1.57 0,-1.436 -0.749,-2.154 -2.248,-2.154 l -0.934,0 0,-2.105 -1.65,0 z"
             style="fill:#6d6f71;fill-opacity:1;fill-rule:nonzero;stroke:none"
             id="path34"
             inkscape:connector-curvature="0" /></g><g
           id="g36"
           transform="translate(230.7148,529.123)"><path
             d="m 0,0 -0.673,2.021 -0.017,0 L -1.372,0 0,0 Z m 0.446,-1.263 -2.273,0 -0.437,-1.102 -1.751,0 2.441,6.346 1.801,0 2.391,-6.346 -1.76,0 -0.412,1.102 z"
             style="fill:#6d6f71;fill-opacity:1;fill-rule:nonzero;stroke:none"
             id="path38"
             inkscape:connector-curvature="0" /></g><g
           id="g40"
           transform="translate(235.4956,531.8418)"><path
             d="m 0,0 0,-1.582 0.16,0 c 0.763,0 1.145,0.264 1.145,0.791 C 1.305,-0.264 0.923,0 0.16,0 L 0,0 Z m 1.633,-2.483 1.995,-2.601 -2.054,0 -1.557,2.441 -0.017,0 0,-2.441 -1.65,0 0,6.347 2.466,0 C 1.479,1.263 2.012,1.1 2.416,0.774 2.82,0.449 3.022,-0.039 3.022,-0.69 3.022,-1.145 2.9,-1.537 2.656,-1.868 2.412,-2.2 2.071,-2.404 1.633,-2.483"
             style="fill:#6d6f71;fill-opacity:1;fill-rule:nonzero;stroke:none"
             id="path42"
             inkscape:connector-curvature="0" /></g><g
           id="g44"
           transform="translate(243.1807,531.707)"><path
             d="m 0,0 -1.961,0 0,-1.061 1.86,0 0,-1.397 -1.86,0 0,-1.094 1.961,0 0,-1.397 -3.611,0 0,6.346 L 0,1.397 0,0 Z"
             style="fill:#6d6f71;fill-opacity:1;fill-rule:nonzero;stroke:none"
             id="path46"
             inkscape:connector-curvature="0" /></g><g
           id="g48"
           transform="translate(319.8945,203.167)"><path
             d="m 0,0 0,-3.552 0.371,0 c 0.527,0 0.963,0.149 1.309,0.447 0.345,0.296 0.517,0.74 0.517,1.329 0,0.555 -0.166,0.991 -0.496,1.304 C 1.369,-0.157 0.932,0 0.388,0 L 0,0 Z m -1.649,-4.949 0,6.346 2.34,0 C 1.577,1.397 2.336,1.09 2.968,0.476 3.599,-0.139 3.914,-0.89 3.914,-1.776 3.914,-2.663 3.599,-3.413 2.968,-4.027 2.336,-4.642 1.577,-4.949 0.691,-4.949 l -2.34,0 z"
             style="fill:#6d6f71;fill-opacity:1;fill-rule:nonzero;stroke:none"
             id="path50"
             inkscape:connector-curvature="0" /></g><g
           id="g52"
           transform="translate(328.1855,203.167)"><path
             d="m 0,0 -1.961,0 0,-1.061 1.86,0 0,-1.397 -1.86,0 0,-1.094 1.961,0 0,-1.397 -3.611,0 0,6.346 L 0,1.397 0,0 Z"
             style="fill:#6d6f71;fill-opacity:1;fill-rule:nonzero;stroke:none"
             id="path54"
             inkscape:connector-curvature="0" /></g><g
           id="g56"
           transform="translate(332.8486,203.167)"><path
             d="m 0,0 -1.995,0 0,-1.061 1.809,0 0,-1.397 -1.809,0 0,-2.491 -1.65,0 0,6.346 L 0,1.397 0,0 Z"
             style="fill:#6d6f71;fill-opacity:1;fill-rule:nonzero;stroke:none"
             id="path58"
             inkscape:connector-curvature="0" /></g><path
           d="m 335.416,198.218 -1.649,0 0,6.347 1.649,0 0,-6.347 z"
           style="fill:#6d6f71;fill-opacity:1;fill-rule:nonzero;stroke:none"
           id="path60"
           inkscape:connector-curvature="0" /><g
           id="g62"
           transform="translate(336.4941,198.2178)"><path
             d="m 0,0 0,6.347 1.649,0 3.022,-3.881 0.017,0 0,3.881 1.65,0 0,-6.347 -1.65,0 -3.022,3.889 -0.017,0 L 1.649,0 0,0 Z"
             style="fill:#6d6f71;fill-opacity:1;fill-rule:nonzero;stroke:none"
             id="path64"
             inkscape:connector-curvature="0" /></g><g
           id="g66"
           transform="translate(347.5205,203.167)"><path
             d="m 0,0 -1.961,0 0,-1.061 1.86,0 0,-1.397 -1.86,0 0,-1.094 1.961,0 0,-1.397 -3.61,0 0,6.346 3.61,0 L 0,0 Z"
             style="fill:#6d6f71;fill-opacity:1;fill-rule:nonzero;stroke:none"
             id="path68"
             inkscape:connector-curvature="0" /></g><g
           id="g70"
           transform="translate(353.9502,203.167)"><path
             d="m 0,0 0,-4.949 -1.649,0 0,4.949 -1.364,0 0,1.397 4.377,0 L 1.364,0 0,0 Z"
             style="fill:#6d6f71;fill-opacity:1;fill-rule:nonzero;stroke:none"
             id="path72"
             inkscape:connector-curvature="0" /></g><g
           id="g74"
           transform="translate(357.5615,202.1152)"><path
             d="m 0,0 2.382,0 0,2.449 1.65,0 0,-6.346 -1.65,0 0,2.6 -2.382,0 0,-2.6 -1.649,0 0,6.346 L 0,2.449 0,0 Z"
             style="fill:#6d6f71;fill-opacity:1;fill-rule:nonzero;stroke:none"
             id="path76"
             inkscape:connector-curvature="0" /></g><g
           id="g78"
           transform="translate(366.2812,203.167)"><path
             d="m 0,0 -1.961,0 0,-1.061 1.86,0 0,-1.397 -1.86,0 0,-1.094 1.961,0 0,-1.397 -3.61,0 0,6.346 3.61,0 L 0,0 Z"
             style="fill:#6d6f71;fill-opacity:1;fill-rule:nonzero;stroke:none"
             id="path80"
             inkscape:connector-curvature="0" /></g><g
           id="g82"
           transform="translate(371.8359,203.2344)"><path
             d="m 0,0 0,-1.582 0.277,0 c 0.158,0 0.277,0.001 0.359,0.004 0.081,0.003 0.184,0.018 0.311,0.046 0.126,0.028 0.22,0.067 0.282,0.118 0.062,0.051 0.117,0.126 0.164,0.227 0.047,0.101 0.072,0.227 0.072,0.379 0,0.157 -0.023,0.287 -0.068,0.391 -0.044,0.105 -0.098,0.185 -0.16,0.24 C 1.176,-0.121 1.084,-0.08 0.964,-0.055 0.843,-0.029 0.739,-0.014 0.652,-0.009 0.565,-0.003 0.44,0 0.277,0 L 0,0 Z m -1.649,-5.017 0,6.347 2.524,0 c 0.713,0 1.275,-0.173 1.688,-0.518 0.413,-0.345 0.619,-0.868 0.619,-1.57 0,-1.436 -0.749,-2.154 -2.247,-2.154 l -0.935,0 0,-2.105 -1.649,0 z"
             style="fill:#6d6f71;fill-opacity:1;fill-rule:nonzero;stroke:none"
             id="path84"
             inkscape:connector-curvature="0" /></g><g
           id="g86"
           transform="translate(377.3994,204.5645)"><path
             d="m 0,0 0,-4.949 1.979,0 0,-1.398 -3.628,0 0,6.347 L 0,0 Z"
             style="fill:#6d6f71;fill-opacity:1;fill-rule:nonzero;stroke:none"
             id="path88"
             inkscape:connector-curvature="0" /></g><g
           id="g90"
           transform="translate(383.3584,200.583)"><path
             d="m 0,0 -0.674,2.021 -0.016,0 L -1.372,0 0,0 Z m 0.446,-1.263 -2.272,0 -0.439,-1.102 -1.75,0 2.441,6.346 1.802,0 2.389,-6.346 -1.759,0 -0.412,1.102 z"
             style="fill:#6d6f71;fill-opacity:1;fill-rule:nonzero;stroke:none"
             id="path92"
             inkscape:connector-curvature="0" /></g><g
           id="g94"
           transform="translate(386.4902,198.2178)"><path
             d="m 0,0 0,6.347 1.649,0 3.022,-3.881 0.017,0 0,3.881 1.65,0 0,-6.347 -1.65,0 -3.022,3.889 -0.017,0 L 1.649,0 0,0 Z"
             style="fill:#6d6f71;fill-opacity:1;fill-rule:nonzero;stroke:none"
             id="path96"
             inkscape:connector-curvature="0" /></g><path
           d="m 124.162,242.753 -1.65,0 0,6.347 1.65,0 0,-6.347 z"
           style="fill:#6d6f71;fill-opacity:1;fill-rule:nonzero;stroke:none"
           id="path98"
           inkscape:connector-curvature="0" /><g
           id="g100"
           transform="translate(124.8604,242.7529)"><path
             d="m 0,0 1.077,6.347 1.625,0 1.288,-3.393 1.363,3.393 1.642,0 L 7.954,0 6.304,0 5.841,3.653 5.825,3.653 4.301,0 3.645,0 2.188,3.653 2.171,3.653 1.641,0 0,0 Z"
             style="fill:#6d6f71;fill-opacity:1;fill-rule:nonzero;stroke:none"
             id="path102"
             inkscape:connector-curvature="0" /></g><g
           id="g104"
           transform="translate(135.1626,247.7695)"><path
             d="m 0,0 0,-1.582 0.278,0 c 0.157,0 0.276,0.001 0.357,0.004 0.082,0.003 0.186,0.018 0.312,0.046 0.126,0.028 0.22,0.067 0.282,0.118 0.062,0.051 0.116,0.126 0.164,0.227 0.047,0.101 0.071,0.227 0.071,0.379 0,0.157 -0.022,0.287 -0.067,0.391 -0.045,0.105 -0.098,0.185 -0.16,0.24 C 1.175,-0.121 1.084,-0.08 0.964,-0.055 0.843,-0.029 0.739,-0.014 0.652,-0.009 0.565,-0.003 0.44,0 0.278,0 L 0,0 Z m -1.65,-5.017 0,6.347 2.525,0 c 0.713,0 1.275,-0.173 1.688,-0.518 0.413,-0.345 0.619,-0.868 0.619,-1.57 0,-1.436 -0.749,-2.154 -2.248,-2.154 l -0.934,0 0,-2.105 -1.65,0 z"
             style="fill:#6d6f71;fill-opacity:1;fill-rule:nonzero;stroke:none"
             id="path106"
             inkscape:connector-curvature="0" /></g><g
           id="g108"
           transform="translate(140.7266,249.0996)"><path
             d="m 0,0 0,-4.949 1.978,0 0,-1.398 -3.628,0 L -1.65,0 0,0 Z"
             style="fill:#6d6f71;fill-opacity:1;fill-rule:nonzero;stroke:none"
             id="path110"
             inkscape:connector-curvature="0" /></g><g
           id="g112"
           transform="translate(146.8545,247.7021)"><path
             d="m 0,0 -1.961,0 0,-1.061 1.86,0 0,-1.397 -1.86,0 0,-1.094 1.961,0 0,-1.397 -3.611,0 0,6.346 L 0,1.397 0,0 Z"
             style="fill:#6d6f71;fill-opacity:1;fill-rule:nonzero;stroke:none"
             id="path114"
             inkscape:connector-curvature="0" /></g><g
           id="g116"
           transform="translate(147.4941,242.7529)"><path
             d="m 0,0 1.077,6.347 1.625,0 1.288,-3.393 1.363,3.393 1.642,0 L 7.954,0 6.304,0 5.841,3.653 5.825,3.653 4.301,0 3.645,0 2.188,3.653 2.171,3.653 1.641,0 0,0 Z"
             style="fill:#6d6f71;fill-opacity:1;fill-rule:nonzero;stroke:none"
             id="path118"
             inkscape:connector-curvature="0" /></g><g
           id="g120"
           transform="translate(159.7578,247.7021)"><path
             d="m 0,0 -1.961,0 0,-1.061 1.86,0 0,-1.397 -1.86,0 0,-1.094 1.961,0 0,-1.397 -3.611,0 0,6.346 L 0,1.397 0,0 Z"
             style="fill:#6d6f71;fill-opacity:1;fill-rule:nonzero;stroke:none"
             id="path122"
             inkscape:connector-curvature="0" /></g><g
           id="g124"
           transform="translate(160.7759,242.7529)"><path
             d="m 0,0 0,6.347 1.65,0 3.022,-3.881 0.016,0 0,3.881 1.65,0 L 6.338,0 4.688,0 1.667,3.889 1.65,3.889 1.65,0 0,0 Z"
             style="fill:#6d6f71;fill-opacity:1;fill-rule:nonzero;stroke:none"
             id="path126"
             inkscape:connector-curvature="0" /></g><g
           id="g128"
           transform="translate(170.7168,247.7021)"><path
             d="m 0,0 0,-4.949 -1.65,0 0,4.949 -1.364,0 0,1.397 4.377,0 L 1.363,0 0,0 Z"
             style="fill:#6d6f71;fill-opacity:1;fill-rule:nonzero;stroke:none"
             id="path130"
             inkscape:connector-curvature="0" /></g><g
           id="g132"
           transform="translate(72.5308,374.8359)"><path
             d="m 0,0 0,-1.582 0.16,0 c 0.763,0 1.145,0.264 1.145,0.791 C 1.305,-0.264 0.923,0 0.16,0 L 0,0 Z m 1.633,-2.483 1.995,-2.601 -2.054,0 -1.557,2.441 -0.017,0 0,-2.441 -1.65,0 0,6.347 2.466,0 C 1.479,1.263 2.012,1.1 2.416,0.774 2.82,0.449 3.022,-0.039 3.022,-0.69 3.022,-1.145 2.9,-1.537 2.656,-1.868 2.412,-2.2 2.071,-2.404 1.633,-2.483"
             style="fill:#6d6f71;fill-opacity:1;fill-rule:nonzero;stroke:none"
             id="path134"
             inkscape:connector-curvature="0" /></g><g
           id="g136"
           transform="translate(81.0571,374.2051)"><path
             d="M 0,0 C -0.354,0.336 -0.774,0.505 -1.262,0.505 -1.75,0.505 -2.171,0.336 -2.525,0 c -0.353,-0.337 -0.53,-0.728 -0.53,-1.171 0,-0.538 0.174,-0.988 0.522,-1.35 0.347,-0.363 0.771,-0.543 1.271,-0.543 0.499,0 0.923,0.18 1.271,0.543 0.347,0.362 0.521,0.812 0.521,1.35 C 0.53,-0.728 0.354,-0.337 0,0 m -2.979,1.695 c 0.533,0.273 1.105,0.409 1.717,0.409 0.611,0 1.183,-0.136 1.717,-0.409 C 0.988,1.424 1.42,1.035 1.751,0.53 2.082,0.024 2.248,-0.539 2.248,-1.162 c 0,-1.026 -0.33,-1.867 -0.989,-2.521 -0.66,-0.654 -1.5,-0.98 -2.521,-0.98 -1.022,0 -1.862,0.326 -2.521,0.98 -0.66,0.654 -0.989,1.495 -0.989,2.521 0,0.623 0.165,1.186 0.496,1.692 0.331,0.505 0.763,0.894 1.297,1.165"
             style="fill:#6d6f71;fill-opacity:1;fill-rule:nonzero;stroke:none"
             id="path138"
             inkscape:connector-curvature="0" /></g><g
           id="g140"
           transform="translate(85.7202,376.0986)"><path
             d="m 0,0 0,-4.949 1.978,0 0,-1.398 -3.628,0 L -1.65,0 0,0 Z"
             style="fill:#6d6f71;fill-opacity:1;fill-rule:nonzero;stroke:none"
             id="path142"
             inkscape:connector-curvature="0" /></g><g
           id="g144"
           transform="translate(89.8867,376.0986)"><path
             d="m 0,0 0,-4.949 1.978,0 0,-1.398 -3.628,0 L -1.65,0 0,0 Z"
             style="fill:#6d6f71;fill-opacity:1;fill-rule:nonzero;stroke:none"
             id="path146"
             inkscape:connector-curvature="0" /></g><path
           d="m 92.311,373.085 2.407,0 0,-1.263 -2.407,0 0,1.263 z"
           style="fill:#6d6f71;fill-opacity:1;fill-rule:nonzero;stroke:none"
           id="path148"
           inkscape:connector-curvature="0" /><g
           id="g150"
           transform="translate(100.1553,374.2051)"><path
             d="M 0,0 C -0.354,0.336 -0.774,0.505 -1.262,0.505 -1.75,0.505 -2.171,0.336 -2.525,0 c -0.353,-0.337 -0.53,-0.728 -0.53,-1.171 0,-0.538 0.174,-0.988 0.522,-1.35 0.347,-0.363 0.771,-0.543 1.271,-0.543 0.499,0 0.923,0.18 1.271,0.543 0.347,0.362 0.521,0.812 0.521,1.35 C 0.53,-0.728 0.354,-0.337 0,0 m -2.979,1.695 c 0.533,0.273 1.105,0.409 1.717,0.409 0.611,0 1.183,-0.136 1.717,-0.409 C 0.988,1.424 1.42,1.035 1.751,0.53 2.082,0.024 2.248,-0.539 2.248,-1.162 c 0,-1.026 -0.33,-1.867 -0.989,-2.521 -0.66,-0.654 -1.5,-0.98 -2.521,-0.98 -1.022,0 -1.862,0.326 -2.521,0.98 -0.66,0.654 -0.989,1.495 -0.989,2.521 0,0.623 0.165,1.186 0.496,1.692 0.331,0.505 0.763,0.894 1.297,1.165"
             style="fill:#6d6f71;fill-opacity:1;fill-rule:nonzero;stroke:none"
             id="path152"
             inkscape:connector-curvature="0" /></g><g
           id="g154"
           transform="translate(107.0234,376.0986)"><path
             d="m 0,0 1.65,0 0,-3.569 c 0,-0.516 -0.041,-0.95 -0.122,-1.3 -0.081,-0.352 -0.262,-0.664 -0.543,-0.939 -0.477,-0.471 -1.178,-0.707 -2.104,-0.707 -0.926,0 -1.628,0.236 -2.105,0.707 -0.28,0.275 -0.461,0.587 -0.543,0.939 -0.081,0.35 -0.122,0.784 -0.122,1.3 l 0,3.569 1.65,0 0,-3.342 c 0,-0.202 0.005,-0.37 0.013,-0.505 0.008,-0.134 0.034,-0.286 0.076,-0.455 0.042,-0.168 0.101,-0.302 0.176,-0.403 0.076,-0.102 0.187,-0.187 0.333,-0.257 0.146,-0.07 0.32,-0.105 0.522,-0.105 0.202,0 0.376,0.035 0.522,0.105 0.145,0.07 0.256,0.155 0.332,0.257 0.076,0.101 0.135,0.235 0.177,0.403 0.042,0.169 0.067,0.321 0.076,0.455 C -0.004,-3.712 0,-3.544 0,-3.342 L 0,0 Z"
             style="fill:#6d6f71;fill-opacity:1;fill-rule:nonzero;stroke:none"
             id="path156"
             inkscape:connector-curvature="0" /></g><g
           id="g158"
           transform="translate(112.2427,374.7012)"><path
             d="m 0,0 0,-4.949 -1.65,0 0,4.949 -1.364,0 0,1.397 4.377,0 L 1.363,0 0,0 Z"
             style="fill:#6d6f71;fill-opacity:1;fill-rule:nonzero;stroke:none"
             id="path160"
             inkscape:connector-curvature="0" /></g><g
           id="g162"
           transform="translate(368.0752,514.2246)"><path
             d="m 0,0 -0.674,2.021 -0.016,0 L -1.372,0 0,0 Z m 0.446,-1.263 -2.272,0 -0.439,-1.102 -1.75,0 2.441,6.346 1.802,0 2.389,-6.346 -1.759,0 -0.412,1.102 z"
             style="fill:#6d6f71;fill-opacity:1;fill-rule:nonzero;stroke:none"
             id="path164"
             inkscape:connector-curvature="0" /></g><g
           id="g166"
           transform="translate(375.3477,517.8525)"><path
             d="m 0,0 -0.656,-1.279 c -0.337,0.28 -0.701,0.421 -1.095,0.421 -0.174,0 -0.335,-0.048 -0.483,-0.144 -0.149,-0.096 -0.224,-0.225 -0.224,-0.387 0,-0.112 0.047,-0.214 0.14,-0.303 0.092,-0.09 0.179,-0.152 0.26,-0.185 0.081,-0.034 0.193,-0.073 0.332,-0.118 l 0.421,-0.126 c 0.494,-0.147 0.879,-0.353 1.154,-0.619 0.275,-0.267 0.412,-0.638 0.412,-1.115 0,-0.769 -0.219,-1.338 -0.657,-1.708 -0.47,-0.399 -1.071,-0.598 -1.8,-0.598 -0.797,0 -1.541,0.241 -2.231,0.724 l 0.707,1.33 c 0.499,-0.438 0.988,-0.658 1.464,-0.658 0.214,0 0.401,0.055 0.561,0.164 0.159,0.111 0.239,0.269 0.239,0.476 0,0.287 -0.267,0.508 -0.8,0.665 -0.016,0.006 -0.084,0.025 -0.202,0.06 -0.303,0.084 -0.541,0.162 -0.715,0.235 -0.174,0.073 -0.348,0.176 -0.522,0.308 -0.174,0.131 -0.297,0.298 -0.37,0.501 -0.074,0.201 -0.11,0.451 -0.11,0.749 0,0.639 0.205,1.154 0.614,1.544 0.411,0.39 0.935,0.584 1.575,0.584 0.32,0 0.661,-0.047 1.022,-0.142 C -0.602,0.283 -0.28,0.157 0,0"
             style="fill:#6d6f71;fill-opacity:1;fill-rule:nonzero;stroke:none"
             id="path168"
             inkscape:connector-curvature="0" /></g><g
           id="g170"
           transform="translate(380.5322,517.8525)"><path
             d="m 0,0 -0.656,-1.279 c -0.337,0.28 -0.701,0.421 -1.095,0.421 -0.174,0 -0.335,-0.048 -0.483,-0.144 -0.149,-0.096 -0.224,-0.225 -0.224,-0.387 0,-0.112 0.047,-0.214 0.14,-0.303 0.092,-0.09 0.179,-0.152 0.26,-0.185 0.081,-0.034 0.193,-0.073 0.332,-0.118 l 0.421,-0.126 c 0.494,-0.147 0.879,-0.353 1.154,-0.619 0.275,-0.267 0.412,-0.638 0.412,-1.115 0,-0.769 -0.219,-1.338 -0.657,-1.708 -0.47,-0.399 -1.071,-0.598 -1.8,-0.598 -0.797,0 -1.541,0.241 -2.231,0.724 l 0.707,1.33 c 0.499,-0.438 0.988,-0.658 1.464,-0.658 0.214,0 0.401,0.055 0.561,0.164 0.159,0.111 0.239,0.269 0.239,0.476 0,0.287 -0.267,0.508 -0.8,0.665 -0.016,0.006 -0.084,0.025 -0.202,0.06 -0.303,0.084 -0.541,0.162 -0.715,0.235 -0.174,0.073 -0.348,0.176 -0.522,0.308 -0.174,0.131 -0.297,0.298 -0.37,0.501 -0.074,0.201 -0.11,0.451 -0.11,0.749 0,0.639 0.205,1.154 0.614,1.544 0.411,0.39 0.935,0.584 1.575,0.584 0.32,0 0.661,-0.047 1.022,-0.142 C -0.602,0.283 -0.28,0.157 0,0"
             style="fill:#6d6f71;fill-opacity:1;fill-rule:nonzero;stroke:none"
             id="path172"
             inkscape:connector-curvature="0" /></g><g
           id="g174"
           transform="translate(385.1865,516.8086)"><path
             d="m 0,0 -1.961,0 0,-1.061 1.86,0 0,-1.397 -1.86,0 0,-1.094 1.961,0 0,-1.397 -3.61,0 0,6.346 3.61,0 L 0,0 Z"
             style="fill:#6d6f71;fill-opacity:1;fill-rule:nonzero;stroke:none"
             id="path176"
             inkscape:connector-curvature="0" /></g><g
           id="g178"
           transform="translate(390.3457,517.8525)"><path
             d="m 0,0 -0.656,-1.279 c -0.337,0.28 -0.701,0.421 -1.095,0.421 -0.174,0 -0.335,-0.048 -0.483,-0.144 -0.149,-0.096 -0.224,-0.225 -0.224,-0.387 0,-0.112 0.047,-0.214 0.14,-0.303 0.092,-0.09 0.179,-0.152 0.26,-0.185 0.081,-0.034 0.193,-0.073 0.332,-0.118 l 0.421,-0.126 c 0.494,-0.147 0.879,-0.353 1.154,-0.619 0.275,-0.267 0.412,-0.638 0.412,-1.115 0,-0.769 -0.219,-1.338 -0.657,-1.708 -0.47,-0.399 -1.071,-0.598 -1.8,-0.598 -0.797,0 -1.541,0.241 -2.231,0.724 l 0.707,1.33 c 0.499,-0.438 0.988,-0.658 1.464,-0.658 0.214,0 0.401,0.055 0.561,0.164 0.159,0.111 0.239,0.269 0.239,0.476 0,0.287 -0.267,0.508 -0.8,0.665 -0.016,0.006 -0.084,0.025 -0.202,0.06 -0.303,0.084 -0.541,0.162 -0.715,0.235 -0.174,0.073 -0.348,0.176 -0.522,0.308 -0.174,0.131 -0.297,0.298 -0.37,0.501 -0.074,0.201 -0.11,0.451 -0.11,0.749 0,0.639 0.205,1.154 0.614,1.544 0.411,0.39 0.935,0.584 1.575,0.584 0.32,0 0.661,-0.047 1.022,-0.142 C -0.602,0.283 -0.28,0.157 0,0"
             style="fill:#6d6f71;fill-opacity:1;fill-rule:nonzero;stroke:none"
             id="path180"
             inkscape:connector-curvature="0" /></g><g
           id="g182"
           transform="translate(395.5303,517.8525)"><path
             d="m 0,0 -0.656,-1.279 c -0.337,0.28 -0.701,0.421 -1.095,0.421 -0.174,0 -0.335,-0.048 -0.483,-0.144 -0.149,-0.096 -0.224,-0.225 -0.224,-0.387 0,-0.112 0.047,-0.214 0.14,-0.303 0.092,-0.09 0.179,-0.152 0.26,-0.185 0.081,-0.034 0.193,-0.073 0.332,-0.118 l 0.421,-0.126 c 0.494,-0.147 0.879,-0.353 1.154,-0.619 0.275,-0.267 0.412,-0.638 0.412,-1.115 0,-0.769 -0.219,-1.338 -0.657,-1.708 -0.47,-0.399 -1.071,-0.598 -1.8,-0.598 -0.797,0 -1.541,0.241 -2.231,0.724 l 0.707,1.33 c 0.499,-0.438 0.988,-0.658 1.464,-0.658 0.214,0 0.401,0.055 0.561,0.164 0.159,0.111 0.239,0.269 0.239,0.476 0,0.287 -0.267,0.508 -0.8,0.665 -0.016,0.006 -0.084,0.025 -0.202,0.06 -0.303,0.084 -0.541,0.162 -0.715,0.235 -0.174,0.073 -0.348,0.176 -0.522,0.308 -0.174,0.131 -0.297,0.298 -0.37,0.501 -0.074,0.201 -0.11,0.451 -0.11,0.749 0,0.639 0.205,1.154 0.614,1.544 0.411,0.39 0.935,0.584 1.575,0.584 0.32,0 0.661,-0.047 1.022,-0.142 C -0.602,0.283 -0.28,0.157 0,0"
             style="fill:#6d6f71;fill-opacity:1;fill-rule:nonzero;stroke:none"
             id="path184"
             inkscape:connector-curvature="0" /></g><g
           id="g186"
           transform="translate(469.334,364.5332)"><path
             d="m 0,0 -0.656,-1.279 c -0.337,0.28 -0.701,0.421 -1.095,0.421 -0.174,0 -0.335,-0.048 -0.483,-0.144 -0.149,-0.096 -0.224,-0.225 -0.224,-0.387 0,-0.112 0.047,-0.214 0.14,-0.303 0.092,-0.09 0.179,-0.152 0.26,-0.185 0.081,-0.034 0.193,-0.073 0.332,-0.118 l 0.421,-0.126 c 0.494,-0.147 0.879,-0.353 1.154,-0.619 0.275,-0.267 0.412,-0.638 0.412,-1.115 0,-0.769 -0.219,-1.338 -0.657,-1.708 -0.47,-0.399 -1.071,-0.598 -1.8,-0.598 -0.797,0 -1.541,0.241 -2.231,0.724 l 0.707,1.33 c 0.499,-0.438 0.988,-0.658 1.464,-0.658 0.214,0 0.401,0.055 0.561,0.164 0.159,0.111 0.239,0.269 0.239,0.476 0,0.287 -0.267,0.508 -0.8,0.665 -0.016,0.006 -0.084,0.025 -0.202,0.06 -0.303,0.084 -0.541,0.162 -0.715,0.235 -0.174,0.073 -0.348,0.176 -0.522,0.308 -0.174,0.131 -0.297,0.298 -0.37,0.501 -0.074,0.201 -0.11,0.451 -0.11,0.749 0,0.639 0.205,1.154 0.614,1.544 0.411,0.39 0.935,0.584 1.575,0.584 0.32,0 0.661,-0.047 1.022,-0.142 C -0.602,0.283 -0.28,0.157 0,0"
             style="fill:#6d6f71;fill-opacity:1;fill-rule:nonzero;stroke:none"
             id="path188"
             inkscape:connector-curvature="0" /></g><g
           id="g190"
           transform="translate(473.9883,363.4893)"><path
             d="m 0,0 -1.961,0 0,-1.061 1.86,0 0,-1.397 -1.86,0 0,-1.094 1.961,0 0,-1.397 -3.61,0 0,6.346 3.61,0 L 0,0 Z"
             style="fill:#6d6f71;fill-opacity:1;fill-rule:nonzero;stroke:none"
             id="path192"
             inkscape:connector-curvature="0" /></g><g
           id="g194"
           transform="translate(477.5312,363.4893)"><path
             d="m 0,0 0,-4.949 -1.649,0 0,4.949 -1.364,0 0,1.397 4.377,0 L 1.364,0 0,0 Z"
             style="fill:#6d6f71;fill-opacity:1;fill-rule:nonzero;stroke:none"
             id="path196"
             inkscape:connector-curvature="0" /></g><g
           id="g198"
           transform="translate(484.9043,363.4893)"><path
             d="m 0,0 0,-4.949 -1.649,0 0,4.949 -1.364,0 0,1.397 4.377,0 L 1.364,0 0,0 Z"
             style="fill:#6d6f71;fill-opacity:1;fill-rule:nonzero;stroke:none"
             id="path200"
             inkscape:connector-curvature="0" /></g><g
           id="g202"
           transform="translate(488.5156,362.4375)"><path
             d="m 0,0 2.382,0 0,2.449 1.65,0 0,-6.346 -1.65,0 0,2.6 -2.382,0 0,-2.6 -1.649,0 0,6.346 L 0,2.449 0,0 Z"
             style="fill:#6d6f71;fill-opacity:1;fill-rule:nonzero;stroke:none"
             id="path204"
             inkscape:connector-curvature="0" /></g><g
           id="g206"
           transform="translate(497.2354,363.4893)"><path
             d="m 0,0 -1.961,0 0,-1.061 1.86,0 0,-1.397 -1.86,0 0,-1.094 1.961,0 0,-1.397 -3.61,0 0,6.346 3.61,0 L 0,0 Z"
             style="fill:#6d6f71;fill-opacity:1;fill-rule:nonzero;stroke:none"
             id="path208"
             inkscape:connector-curvature="0" /></g><g
           id="g210"
           transform="translate(503.665,363.4893)"><path
             d="m 0,0 0,-4.949 -1.649,0 0,4.949 -1.364,0 0,1.397 4.377,0 L 1.364,0 0,0 Z"
             style="fill:#6d6f71;fill-opacity:1;fill-rule:nonzero;stroke:none"
             id="path212"
             inkscape:connector-curvature="0" /></g><g
           id="g214"
           transform="translate(508.5723,360.9053)"><path
             d="m 0,0 -0.674,2.021 -0.016,0 L -1.372,0 0,0 Z m 0.446,-1.263 -2.272,0 -0.439,-1.102 -1.75,0 2.441,6.346 1.802,0 2.389,-6.346 -1.759,0 -0.412,1.102 z"
             style="fill:#6d6f71;fill-opacity:1;fill-rule:nonzero;stroke:none"
             id="path216"
             inkscape:connector-curvature="0" /></g><g
           id="g218"
           transform="translate(513.3535,363.624)"><path
             d="m 0,0 0,-1.582 0.16,0 c 0.763,0 1.145,0.264 1.145,0.791 C 1.305,-0.264 0.923,0 0.16,0 L 0,0 Z m 1.633,-2.483 1.995,-2.601 -2.054,0 -1.557,2.441 -0.017,0 0,-2.441 -1.649,0 0,6.347 2.465,0 C 1.479,1.263 2.012,1.1 2.416,0.774 2.819,0.449 3.021,-0.039 3.021,-0.69 3.021,-1.145 2.899,-1.537 2.655,-1.868 2.411,-2.2 2.07,-2.404 1.633,-2.483"
             style="fill:#6d6f71;fill-opacity:1;fill-rule:nonzero;stroke:none"
             id="path220"
             inkscape:connector-curvature="0" /></g><g
           id="g222"
           transform="translate(520.4824,362.084)"><path
             d="M 0,0 3.274,0 C 3.264,-0.551 3.217,-1.016 3.136,-1.397 3.055,-1.779 2.885,-2.149 2.627,-2.509 2.031,-3.339 1.159,-3.754 0.009,-3.754 c -0.999,0 -1.813,0.31 -2.442,0.93 -0.628,0.62 -0.942,1.427 -0.942,2.42 0,1.027 0.317,1.853 0.951,2.478 0.634,0.626 1.465,0.939 2.491,0.939 0.662,0 1.238,-0.149 1.726,-0.446 C 2.281,2.27 2.66,1.826 2.93,1.237 L 1.364,0.58 c -0.118,0.315 -0.295,0.562 -0.53,0.741 -0.236,0.18 -0.517,0.27 -0.842,0.27 -0.511,0 -0.913,-0.202 -1.208,-0.607 -0.295,-0.404 -0.442,-0.87 -0.442,-1.397 0,-0.527 0.15,-0.99 0.451,-1.389 0.3,-0.398 0.708,-0.597 1.225,-0.597 0.37,0 0.675,0.095 0.917,0.286 0.241,0.191 0.378,0.463 0.412,0.816 L 0,-1.297 0,0 Z"
             style="fill:#6d6f71;fill-opacity:1;fill-rule:nonzero;stroke:none"
             id="path224"
             inkscape:connector-curvature="0" /></g><g
           id="g226"
           transform="translate(528.125,363.4893)"><path
             d="m 0,0 -1.961,0 0,-1.061 1.86,0 0,-1.397 -1.86,0 0,-1.094 1.961,0 0,-1.397 -3.61,0 0,6.346 3.61,0 L 0,0 Z"
             style="fill:#6d6f71;fill-opacity:1;fill-rule:nonzero;stroke:none"
             id="path228"
             inkscape:connector-curvature="0" /></g><g
           id="g230"
           transform="translate(531.668,363.4893)"><path
             d="m 0,0 0,-4.949 -1.649,0 0,4.949 -1.364,0 0,1.397 4.377,0 L 1.364,0 0,0 Z"
             style="fill:#6d6f71;fill-opacity:1;fill-rule:nonzero;stroke:none"
             id="path232"
             inkscape:connector-curvature="0" /></g><g
           id="g234"
           transform="translate(295.3618,486.2246)"><path
             d="m 0,0 7.434,-12.648 10.698,-18.23 -18.601,-31.7 c 19.306,-1.867 35.886,-13.049 45.189,-28.999 l 18.381,-0.128 18.04,-0.129 8.91,15.688 8.853,15.616 0.014,0.009 C 78.904,-25.929 42.309,-2.132 0,0"
             style="fill:#faf2e9;fill-opacity:1;fill-rule:nonzero;stroke:none"
             id="path236"
             inkscape:connector-curvature="0" /></g><g
           id="g238"
           transform="translate(397.2451,420.2588)"><path
             d="m 0,0 -7.246,-12.781 -10.441,-18.381 -21.133,0.151 -15.61,0.109 c 3.374,-7.422 5.258,-15.665 5.258,-24.348 0,-10.662 -2.833,-20.662 -7.784,-29.29 l 9.078,-15.979 8.908,-15.687 18.04,0.128 17.951,0.14 0.015,-0.007 C 7.367,-98.09 13.282,-77.362 13.282,-55.25 13.282,-35.352 8.489,-16.573 0,0"
             style="fill:#42c0cd;fill-opacity:1;fill-rule:nonzero;stroke:none"
             id="path240"
             inkscape:connector-curvature="0" /></g><g
           id="g242"
           transform="translate(295.3618,486.2246)"><path
             d="m 0,0 7.434,-12.648 10.698,-18.23 -18.601,-31.7 c 19.306,-1.867 35.886,-13.049 45.189,-28.999 l 18.381,-0.128 18.04,-0.129 8.91,15.688 8.853,15.616 0.014,0.009 C 78.904,-25.929 42.309,-2.132 0,0"
             style="fill:#00a8c7;fill-opacity:1;fill-rule:nonzero;stroke:none"
             id="path244"
             inkscape:connector-curvature="0" /></g><g
           id="g246"
           transform="translate(376.3564,298.9082)"><path
             d="m 0,0 -21.139,-0.149 -10.435,18.378 -7.715,13.58 C -49.942,16.951 -67.333,7.252 -86.995,7.184 l 0,-0.003 -9.305,-15.861 -9.131,-15.558 9.131,-15.56 9.097,-15.475 c 42.7,0 80.248,22.054 101.882,55.388 L 0,0 Z"
             style="fill:#00a8c7;fill-opacity:1;fill-rule:nonzero;stroke:none"
             id="path248"
             inkscape:connector-curvature="0" /></g><g
           id="g250"
           transform="translate(397.2451,420.2588)"><path
             d="m 0,0 -7.246,-12.781 -10.441,-18.381 -21.133,0.151 -15.61,0.109 c 3.374,-7.422 5.258,-15.665 5.258,-24.348 0,-10.662 -2.833,-20.662 -7.784,-29.29 l 9.078,-15.979 8.908,-15.687 18.04,0.128 17.951,0.14 0.015,-0.007 C 7.367,-98.09 13.282,-77.362 13.282,-55.25 13.282,-35.352 8.489,-16.573 0,0"
             style="fill:#8fc03e;fill-opacity:1;fill-rule:nonzero;stroke:none"
             id="path252"
             inkscape:connector-curvature="0" /></g><g
           id="g254"
           transform="translate(275.5112,256.4385)"><path
             d="m 0,0 -10.698,18.23 18.6,31.701 c -19.306,1.867 -35.885,13.049 -45.187,29 l -18.382,0.127 -18.04,0.128 -8.91,-15.688 -8.852,-15.614 -0.015,-0.011 c 20.015,-34.592 56.61,-58.389 98.919,-60.519 L 0,0 Z"
             style="fill:#faf2e9;fill-opacity:1;fill-rule:nonzero;stroke:none"
             id="path256"
             inkscape:connector-curvature="0" /></g><g
           id="g258"
           transform="translate(376.3564,298.9082)"><path
             d="m 0,0 -21.139,-0.149 -10.435,18.378 -7.715,13.58 C -49.942,16.951 -67.333,7.252 -86.995,7.184 l 0,-0.003 -9.305,-15.861 -9.131,-15.558 9.131,-15.56 9.097,-15.475 c 42.7,0 80.248,22.054 101.882,55.388 L 0,0 Z"
             style="fill:#00a8c7;fill-opacity:1;fill-rule:nonzero;stroke:none"
             id="path260"
             inkscape:connector-curvature="0" /></g><g
           id="g262"
           transform="translate(188.3081,322.5371)"><path
             d="M 0,0 10.44,18.381 31.574,18.23 47.185,18.123 c -3.374,7.421 -5.259,15.664 -5.259,24.349 0,10.66 2.832,20.659 7.784,29.287 l -9.077,15.979 -8.908,15.689 -18.042,-0.129 -17.949,-0.142 -0.016,0.009 c -10.33,-17.854 -16.246,-38.583 -16.246,-60.693 0,-19.901 4.793,-38.679 13.283,-55.252 L 0,0 Z"
             style="fill:#8fc03e;fill-opacity:1;fill-rule:nonzero;stroke:none"
             id="path264"
             inkscape:connector-curvature="0" /></g><g
           id="g266"
           transform="translate(275.5112,256.4385)"><path
             d="m 0,0 -10.698,18.23 18.6,31.701 c -19.306,1.867 -35.885,13.049 -45.187,29 l -18.382,0.127 -18.04,0.128 -8.91,-15.688 -8.852,-15.614 -0.015,-0.011 c 20.015,-34.592 56.61,-58.389 98.919,-60.519 L 0,0 Z"
             style="fill:#8fc03e;fill-opacity:1;fill-rule:nonzero;stroke:none"
             id="path268"
             inkscape:connector-curvature="0" /></g><g
           id="g270"
           transform="translate(298.25,470.9053)"><path
             d="m 0,0 -9.096,15.476 c -42.701,0 -80.247,-22.054 -101.882,-55.389 l 14.678,0.115 21.14,0.15 18.151,-31.959 c 10.653,14.858 28.042,24.558 47.704,24.626 l 0,0.002 L 0,-31.118 9.132,-15.56 0,0 Z"
             style="fill:#a7a9ac;fill-opacity:1;fill-rule:nonzero;stroke:none"
             id="path272"
             inkscape:connector-curvature="0" /></g><g
           id="g274"
           transform="translate(188.3081,322.5371)"><path
             d="M 0,0 10.44,18.381 31.574,18.23 47.185,18.123 c -3.374,7.421 -5.259,15.664 -5.259,24.349 0,10.66 2.832,20.659 7.784,29.287 l -9.077,15.979 -8.908,15.689 -18.042,-0.129 -17.949,-0.142 -0.016,0.009 c -10.33,-17.854 -16.246,-38.583 -16.246,-60.693 0,-19.901 4.793,-38.679 13.283,-55.252 L 0,0 Z"
             style="fill:#00a8c7;fill-opacity:1;fill-rule:nonzero;stroke:none"
             id="path276"
             inkscape:connector-curvature="0" /></g></g></g><g
       id="g278"><g
         id="g280"
         clip-path="url(#clipPath282)"><g
           id="g286"><g
             id="g288" /><g
             id="g298"><g
               clip-path="url(#clipPath290)"
               id="g300"
               style="opacity:0.19999701"><g
                 id="g302"><g
                   clip-path="url(#clipPath294)"
                   id="g304"><g
                     transform="translate(289.1538,274.8096)"
                     id="g306"><path
                       d="m 0,0 c 50.958,0 92.268,41.31 92.268,92.268 0,50.958 -41.31,92.267 -92.268,92.267 -50.958,0 -92.268,-41.309 -92.268,-92.267 C -92.268,41.31 -50.958,0 0,0"
                       style="fill:#ffffff;fill-opacity:1;fill-rule:nonzero;stroke:none"
                       id="path308"
                       inkscape:connector-curvature="0" /></g></g></g></g></g></g><g
           id="g310"
           transform="translate(224.7681,486.3809)"><path
             d="m 0,0 c 8.894,0 16.104,7.21 16.104,16.104 0,8.895 -7.21,16.105 -16.104,16.105 -8.894,0 -16.104,-7.21 -16.104,-16.105 C -16.104,7.21 -8.894,0 0,0"
             style="fill:#a7a9ac;fill-opacity:1;fill-rule:nonzero;stroke:none"
             id="path312"
             inkscape:connector-curvature="0" /></g><g
           id="g314"
           transform="translate(223.8354,505.6328)"><path
             d="m 0,0 -1.36,0 0,2.092 3.829,0 0,-9.498 L 0,-7.406 0,0 Z"
             style="fill:#ffffff;fill-opacity:1;fill-rule:nonzero;stroke:none"
             id="path316"
             inkscape:connector-curvature="0" /></g><g
           id="g318"
           transform="translate(238.7656,502.4854)"><path
             d="m 0,0 c 0,7.786 -6.267,14.099 -13.997,14.099 -7.732,0 -13.998,-6.313 -13.998,-14.099 0,-7.786 6.266,-14.099 13.998,-14.099 C -6.267,-14.099 0,-7.786 0,0 m -1.668,0 c 0,-6.858 -5.52,-12.419 -12.329,-12.419 -6.811,0 -12.33,5.561 -12.33,12.419 0,6.858 5.519,12.419 12.33,12.419 6.809,0 12.329,-5.561 12.329,-12.419"
             style="fill:#ffffff;fill-opacity:1;fill-rule:nonzero;stroke:none"
             id="path320"
             inkscape:connector-curvature="0" /></g><g
           id="g322"
           transform="translate(196.0054,229.4971)"><path
             d="m 0,0 c 8.894,0 16.104,7.21 16.104,16.104 0,8.894 -7.21,16.105 -16.104,16.105 -8.894,0 -16.104,-7.211 -16.104,-16.105 C -16.104,7.21 -8.894,0 0,0"
             style="fill:#4fc2d8;fill-opacity:1;fill-rule:nonzero;stroke:none"
             id="path324"
             inkscape:connector-curvature="0" /></g><g
           id="g326"
           transform="translate(198.7827,248.749)"><path
             d="m 0,0 -3.288,0 -0.163,-1.083 0.781,0.063 c 0.957,0.076 1.757,-0.222 2.399,-0.894 0.643,-0.672 0.964,-1.508 0.964,-2.507 0,-1.041 -0.407,-1.897 -1.222,-2.569 -0.663,-0.53 -1.587,-0.794 -2.771,-0.794 -1.176,0 -2.209,0.285 -3.099,0.856 l 0.366,2.33 c 0.814,-0.73 1.696,-1.095 2.645,-1.095 0.403,0 0.756,0.132 1.058,0.397 0.302,0.264 0.454,0.598 0.454,1.001 0,0.529 -0.208,0.932 -0.624,1.209 -0.416,0.277 -0.901,0.416 -1.455,0.416 -0.655,0 -1.26,-0.131 -1.814,-0.391 L -4.937,2.092 0,2.092 0,0 Z"
             style="fill:#ffffff;fill-opacity:1;fill-rule:nonzero;stroke:none"
             id="path328"
             inkscape:connector-curvature="0" /></g><g
           id="g330"
           transform="translate(210.0029,245.6016)"><path
             d="m 0,0 c 0,7.786 -6.267,14.098 -13.997,14.098 -7.732,0 -13.998,-6.312 -13.998,-14.098 0,-7.787 6.266,-14.1 13.998,-14.1 C -6.267,-14.1 0,-7.787 0,0 m -1.668,0 c 0,-6.859 -5.52,-12.419 -12.329,-12.419 -6.811,0 -12.33,5.56 -12.33,12.419 0,6.857 5.519,12.418 12.33,12.418 6.809,0 12.329,-5.561 12.329,-12.418"
             style="fill:#ffffff;fill-opacity:1;fill-rule:nonzero;stroke:none"
             id="path332"
             inkscape:connector-curvature="0" /></g><g
           id="g334"
           transform="translate(380.0586,469.1201)"><path
             d="m 0,0 c 8.895,0 16.104,7.21 16.104,16.104 0,8.895 -7.209,16.105 -16.104,16.105 -8.894,0 -16.104,-7.21 -16.104,-16.105 C -16.104,7.21 -8.894,0 0,0"
             style="fill:#afd23e;fill-opacity:1;fill-rule:nonzero;stroke:none"
             id="path336"
             inkscape:connector-curvature="0" /></g><g
           id="g338"
           transform="translate(380.6758,483.0566)"><path
             d="m 0,0 3.111,0 0,-2.091 -7.632,0 3.878,4.22 c 0.723,0.789 1.084,1.566 1.084,2.33 0,0.319 -0.103,0.604 -0.308,0.856 -0.206,0.252 -0.465,0.378 -0.776,0.378 -0.318,0 -0.57,-0.109 -0.754,-0.327 -0.186,-0.219 -0.278,-0.496 -0.278,-0.831 0,-0.135 0.013,-0.269 0.037,-0.403 l -2.72,0 c 0.042,1.099 0.392,1.983 1.051,2.651 0.66,0.668 1.543,1.002 2.653,1.002 1.024,0 1.89,-0.311 2.6,-0.932 C 2.656,6.231 3.011,5.417 3.011,4.409 3.011,3.771 2.887,3.225 2.64,2.771 2.392,2.318 2.003,1.852 1.474,1.373 L 0,0 Z"
             style="fill:#ffffff;fill-opacity:1;fill-rule:nonzero;stroke:none"
             id="path340"
             inkscape:connector-curvature="0" /></g><g
           id="g342"
           transform="translate(394.0566,485.2246)"><path
             d="m 0,0 c 0,7.786 -6.267,14.099 -13.997,14.099 -7.732,0 -13.998,-6.313 -13.998,-14.099 0,-7.787 6.266,-14.099 13.998,-14.099 C -6.267,-14.099 0,-7.787 0,0 m -1.668,0 c 0,-6.858 -5.52,-12.419 -12.329,-12.419 -6.811,0 -12.33,5.561 -12.33,12.419 0,6.858 5.519,12.418 12.33,12.418 6.809,0 12.329,-5.56 12.329,-12.418"
             style="fill:#ffffff;fill-opacity:1;fill-rule:nonzero;stroke:none"
             id="path344"
             inkscape:connector-curvature="0" /></g><g
           id="g346"
           transform="translate(355.5342,212.999)"><path
             d="m 0,0 c 8.894,0 16.104,7.21 16.104,16.104 0,8.895 -7.21,16.105 -16.104,16.105 -8.895,0 -16.104,-7.21 -16.104,-16.105 C -16.104,7.21 -8.895,0 0,0"
             style="fill:#afd23e;fill-opacity:1;fill-rule:nonzero;stroke:none"
             id="path348"
             inkscape:connector-curvature="0" /></g><g
           id="g350"
           transform="translate(356.0254,228.6992)"><path
             d="m 0,0 0,3.653 -0.025,0 L -2.242,0 0,0 Z m 2.293,0 1.146,0 0,-1.89 -1.146,0 0,-1.964 -2.293,0 0,1.964 -4.61,0 0,1.576 3.666,5.958 3.237,0 0,-5.644 z"
             style="fill:#ffffff;fill-opacity:1;fill-rule:nonzero;stroke:none"
             id="path352"
             inkscape:connector-curvature="0" /></g><g
           id="g354"
           transform="translate(369.5312,229.1035)"><path
             d="m 0,0 c 0,7.786 -6.267,14.099 -13.996,14.099 -7.733,0 -13.998,-6.313 -13.998,-14.099 0,-7.787 6.265,-14.099 13.998,-14.099 C -6.267,-14.099 0,-7.787 0,0 m -1.668,0 c 0,-6.858 -5.519,-12.419 -12.328,-12.419 -6.812,0 -12.33,5.561 -12.33,12.419 0,6.858 5.518,12.418 12.33,12.418 6.809,0 12.328,-5.56 12.328,-12.418"
             style="fill:#ffffff;fill-opacity:1;fill-rule:nonzero;stroke:none"
             id="path356"
             inkscape:connector-curvature="0" /></g><g
           id="g358"
           transform="translate(137.4985,356.25)"><path
             d="m 0,0 c 8.894,0 16.104,7.21 16.104,16.104 0,8.895 -7.21,16.105 -16.104,16.105 -8.894,0 -16.104,-7.21 -16.104,-16.105 C -16.104,7.21 -8.894,0 0,0"
             style="fill:#afd23e;fill-opacity:1;fill-rule:nonzero;stroke:none"
             id="path360"
             inkscape:connector-curvature="0" /></g><g
           id="g362"
           transform="translate(136.3335,370.1172)"><path
             d="m 0,0 c 0.307,-0.307 0.674,-0.46 1.102,-0.46 0.429,0 0.79,0.153 1.084,0.46 0.293,0.307 0.44,0.679 0.44,1.115 0,0.428 -0.147,0.793 -0.44,1.096 C 1.892,2.514 1.531,2.664 1.102,2.664 0.674,2.664 0.307,2.514 0,2.211 -0.307,1.908 -0.459,1.543 -0.459,1.115 -0.459,0.679 -0.307,0.307 0,0 m 0.699,7.477 2.797,0 L 0.8,4.264 0.825,4.239 C 1.262,4.432 1.703,4.528 2.148,4.528 3.046,4.528 3.779,4.199 4.346,3.54 4.913,2.881 5.196,2.098 5.196,1.19 5.196,0.073 4.801,-0.804 4.012,-1.442 3.223,-2.08 2.257,-2.399 1.115,-2.399 c -1.117,0 -2.02,0.273 -2.708,0.818 -0.386,0.319 -0.695,0.712 -0.926,1.178 -0.231,0.466 -0.347,0.943 -0.347,1.429 0,1.193 0.509,2.453 1.525,3.78 l 2.04,2.671 z"
             style="fill:#ffffff;fill-opacity:1;fill-rule:nonzero;stroke:none"
             id="path364"
             inkscape:connector-curvature="0" /></g><g
           id="g366"
           transform="translate(151.4966,372.3545)"><path
             d="m 0,0 c 0,7.786 -6.267,14.099 -13.997,14.099 -7.732,0 -13.998,-6.313 -13.998,-14.099 0,-7.786 6.266,-14.099 13.998,-14.099 C -6.267,-14.099 0,-7.786 0,0 m -1.668,0 c 0,-6.858 -5.52,-12.419 -12.329,-12.419 -6.811,0 -12.33,5.561 -12.33,12.419 0,6.858 5.519,12.418 12.33,12.418 6.809,0 12.329,-5.56 12.329,-12.418"
             style="fill:#ffffff;fill-opacity:1;fill-rule:nonzero;stroke:none"
             id="path368"
             inkscape:connector-curvature="0" /></g><g
           id="g370"
           transform="translate(440.8086,345.2773)"><path
             d="m 0,0 c 8.894,0 16.104,7.21 16.104,16.104 0,8.895 -7.21,16.105 -16.104,16.105 -8.895,0 -16.104,-7.21 -16.104,-16.105 C -16.104,7.21 -8.895,0 0,0"
             style="fill:#4fc2d8;fill-opacity:1;fill-rule:nonzero;stroke:none"
             id="path372"
             inkscape:connector-curvature="0" /></g><g
           id="g374"
           transform="translate(439.7002,363.8877)"><path
             d="m 0,0 -2.292,0 c 0.092,0.948 0.461,1.713 1.108,2.292 0.613,0.546 1.419,0.819 2.418,0.819 0.882,0 1.609,-0.244 2.18,-0.731 0.57,-0.486 0.857,-1.163 0.857,-2.027 0,-0.404 -0.084,-0.784 -0.252,-1.141 -0.168,-0.357 -0.416,-0.628 -0.744,-0.813 0.479,-0.126 0.857,-0.425 1.134,-0.9 0.277,-0.475 0.415,-0.972 0.415,-1.492 0,-0.664 -0.178,-1.239 -0.535,-1.726 -0.356,-0.487 -0.81,-0.846 -1.36,-1.077 -0.55,-0.231 -1.149,-0.347 -1.795,-0.347 -1.184,0 -2.129,0.358 -2.834,1.071 -0.303,0.31 -0.561,0.688 -0.775,1.134 -0.214,0.445 -0.317,0.865 -0.308,1.259 l 2.518,0 c 0,-0.385 0.124,-0.707 0.372,-0.964 0.247,-0.255 0.565,-0.383 0.952,-0.383 0.385,0 0.703,0.117 0.95,0.352 0.248,0.236 0.372,0.542 0.372,0.92 0,0.353 -0.13,0.652 -0.391,0.9 -0.261,0.249 -0.566,0.373 -0.919,0.373 -0.101,0 -0.244,-0.026 -0.428,-0.077 l 0,1.651 0.252,0 c 0.319,0 0.579,0.095 0.781,0.283 0.201,0.189 0.302,0.443 0.302,0.762 C 1.978,0.424 1.886,0.654 1.7,0.831 1.516,1.007 1.285,1.096 1.008,1.096 0.697,1.096 0.449,0.992 0.265,0.787 0.08,0.581 -0.009,0.318 0,0"
             style="fill:#ffffff;fill-opacity:1;fill-rule:nonzero;stroke:none"
             id="path376"
             inkscape:connector-curvature="0" /></g><g
           id="g378"
           transform="translate(454.8057,361.3818)"><path
             d="m 0,0 c 0,7.786 -6.267,14.099 -13.997,14.099 -7.732,0 -13.998,-6.313 -13.998,-14.099 0,-7.787 6.266,-14.099 13.998,-14.099 C -6.267,-14.099 0,-7.787 0,0 m -1.668,0 c 0,-6.858 -5.519,-12.419 -12.329,-12.419 -6.811,0 -12.33,5.561 -12.33,12.419 0,6.858 5.519,12.418 12.33,12.418 6.81,0 12.329,-5.56 12.329,-12.418"
             style="fill:#ffffff;fill-opacity:1;fill-rule:nonzero;stroke:none"
             id="path380"
             inkscape:connector-curvature="0" /></g></g></g></g></svg>